<svg xmlns="http://www.w3.org/2000/svg" xmlns:xlink="http://www.w3.org/1999/xlink" version="1.1" id="Layer_1" x="0" y="0" viewBox="0 0 145.5 36.3" xml:space="preserve" enable-background="new 0 0 145.5 36.3"><style type="text/css">
	.st0{fill:#622E53;}
	.st1{fill:#777166;}
	.st2{fill:#8C163B;}
	.st3{fill:#D17727;}
	.st4{fill:#287850;}
</style><g id="XMLID_295_"><path id="XMLID_363_" class="st0" d="M15.6 31.1c0.3 0.8 0.5 1.5 0.7 2 0.2 0.5 0.6 0.9 1 1.2 0.3 0.2 0.6 0.4 0.9 0.4 0.3 0 0.4 0.2 0.4 0.4 0 0.3-0.3 0.5-0.8 0.5 -0.3 0-0.7 0-1.2-0.1 -0.5-0.1-1.1-0.1-1.8-0.1 -1 0-1.8 0-2.4 0.1 -0.6 0.1-1 0.1-1.3 0.1 -0.4 0-0.6-0.1-0.6-0.4 0-0.4 0.2-0.6 0.7-0.6 0.6 0 1-0.1 1.2-0.2 0.2-0.1 0.3-0.3 0.3-0.7 0-0.3-0.1-0.8-0.3-1.6l-1.4-4.6c0-0.2-0.2-0.3-0.5-0.3H6.2c-0.1 0-0.2 0-0.2 0.1 -0.1 0.1-0.1 0.1-0.2 0.2l-0.9 3.2c-0.4 1.4-0.5 2.3-0.5 2.8 0 0.4 0.1 0.6 0.2 0.7 0.1 0.1 0.4 0.2 0.7 0.3 0.5 0.1 0.8 0.2 1.1 0.3 0.2 0.1 0.4 0.3 0.4 0.5 0 0.3-0.2 0.4-0.6 0.4 -0.3 0-0.7 0-1.2-0.1 -0.5-0.1-1.2-0.1-1.9-0.1 -0.5 0-1 0-1.4 0.1 -0.4 0.1-0.7 0.1-1 0.1 -0.4 0-0.6-0.2-0.6-0.5 0-0.2 0.1-0.3 0.2-0.4 0.1-0.1 0.3-0.1 0.4-0.1 0.2 0 0.4 0 0.6-0.1 0.2 0 0.4-0.1 0.6-0.3 0.3-0.2 0.6-0.6 0.8-1 0.2-0.4 0.3-1 0.5-1.6l5.7-18.5C8.9 13 8.9 12.7 9 12.6c0.1-0.2 0.2-0.2 0.4-0.2 0.3 0 0.4 0.2 0.5 0.5 0.1 0.3 0.2 0.7 0.4 1.2L15.6 31.1zM8.3 18.7c-0.1 0-0.2 0.1-0.2 0.3l-1.7 6.3c0 0.1 0 0.2 0 0.3 0 0 0 0.1 0 0.1 0 0.1 0.1 0.2 0.3 0.2h3.6c0.1 0 0.1 0 0.2-0.1 0.1-0.1 0.1-0.1 0.1-0.2 0 0 0-0.2-0.1-0.4L8.5 19C8.4 18.8 8.3 18.7 8.3 18.7z"/><path id="XMLID_450_" class="st1" d="M37.2 13c0.2 0 0.3 0 0.3 0.1 0.1 0 0.1 0.1 0.3 0.3l9.6 15.6c0 0 0 0 0.1 0 0.1 0 0.1-0.1 0.1-0.4v-9.8c0-0.5 0-0.9 0-1.2 0-0.3 0-0.5 0-0.6 0-0.6 0-1.2-0.1-1.5 0-0.4-0.1-0.7-0.3-0.9 -0.1-0.2-0.3-0.3-0.6-0.4C46.4 14.1 46 14 45.5 14c-0.2 0-0.3 0-0.5-0.1 -0.1-0.1-0.2-0.2-0.2-0.4 0-0.4 0.3-0.5 0.9-0.5 0.3 0 0.7 0 1.1 0.1 0.4 0 0.9 0.1 1.4 0.1 0.5 0 0.9 0 1.3-0.1 0.4 0 0.7-0.1 0.9-0.1 0.5 0 0.8 0.2 0.8 0.5 0 0.2 0 0.3-0.1 0.4C51 14 50.9 14 50.6 14h-0.4c-0.6 0-1 0.3-1.1 0.9 -0.1 0.6-0.2 1.5-0.2 2.9v17.8c0 0.2-0.1 0.4-0.2 0.6 -0.1 0.2-0.2 0.3-0.4 0.3 -0.2 0-0.4-0.2-0.7-0.6L35.9 16.8c0 0 0 0-0.1 0 -0.1 0-0.1 0.1-0.1 0.4V31c0 0.7 0 1.2 0 1.7 0 0.4 0.1 0.8 0.2 1.1 0.1 0.3 0.3 0.5 0.5 0.6 0.2 0.1 0.5 0.2 0.9 0.2 0.1 0 0.2 0 0.3 0 0.1 0 0.2 0 0.3 0 0.3 0 0.5 0.2 0.5 0.6 0 0.4-0.3 0.5-0.9 0.5 -0.3 0-0.7 0-1.1-0.1 -0.4 0-0.9-0.1-1.4-0.1 -0.5 0-0.9 0-1.2 0.1 -0.4 0-0.7 0.1-1.1 0.1 -0.6 0-0.9-0.2-0.9-0.5 0-0.4 0.2-0.6 0.7-0.6h0.3c0.4 0 0.6-0.1 0.9-0.2 0.2-0.1 0.4-0.3 0.5-0.6 0.1-0.3 0.2-0.7 0.2-1.2 0-0.5 0-1.1 0-1.8V15.8c0-0.5 0-0.9-0.1-1.1 -0.1-0.2-0.3-0.4-0.6-0.5C33.3 14 32.9 14 32.6 14c-0.3 0-0.5-0.1-0.5-0.5 0-0.3 0.2-0.5 0.5-0.5H37.2z"/><path id="XMLID_452_" class="st2" d="M81.6 30.3c-0.2 0.7-0.3 1.2-0.3 1.4 0 0.6 0.2 0.9 0.6 0.9 0.5 0 1.3-0.8 2.3-2.4 0.4-0.5 0.6-1 0.8-1.4 0.2-0.4 0.4-0.6 0.7-0.6 0.3 0 0.5 0.2 0.5 0.6 0 0.5-0.6 1.6-1.7 3.4 -1 1.5-2 2.6-3 3.3 -1 0.7-1.9 1-2.6 1 -1.3 0-1.9-0.8-1.9-2.3 0-0.7 0.2-1.6 0.5-2.9l1.5-5.8c-2.4 3.7-4.5 6.5-6.3 8.3 -1.8 1.8-3.5 2.8-5 2.8 -1.3 0-2.2-0.5-2.9-1.4 -0.7-0.9-1.1-2.3-1.1-4.1 0-1.9 0.5-4 1.4-6.3 0.9-2.3 2.3-4.5 4.1-6.7 1.6-1.9 3.3-3.3 5-4.3 1.7-0.9 3.3-1.4 4.7-1.4 0.5 0 1 0.1 1.6 0.3 0.5 0.2 1.1 0.4 1.7 0.7l1.8-7c0.2-0.9 0.3-1.5 0.3-1.9 0-0.5-0.1-0.8-0.4-0.9 -0.3-0.1-0.5-0.2-0.8-0.3 -0.3 0-0.6-0.1-0.8-0.1 -0.3-0.1-0.4-0.2-0.4-0.6 0-0.5 0.2-0.8 0.6-0.9 0.4-0.1 1-0.2 1.8-0.2 0.6 0 1.2-0.1 1.7-0.2 0.5-0.2 1-0.3 1.3-0.5 0.4-0.2 0.7-0.3 1-0.5C88.6 0.1 88.8 0 89 0c0.4 0 0.7 0.3 0.7 0.8 0 0.2 0 0.4-0.1 0.7 -0.1 0.3-0.2 0.6-0.3 1L81.6 30.3zM72.4 19.3c-1.4 2.1-2.4 4.1-3 6 -0.6 1.9-0.9 3.4-0.9 4.4 0 0.9 0.1 1.6 0.4 2.1 0.3 0.5 0.7 0.8 1.1 0.8 1.1 0 2.3-0.6 3.4-1.9 1.2-1.3 2.5-3.2 4.2-5.8 1.2-1.9 2.1-3.5 2.8-4.8 0.7-1.4 1-2.6 1-3.7 0-1.7-0.7-2.5-2.2-2.5C77 13.9 74.8 15.7 72.4 19.3z"/><path id="XMLID_455_" class="st3" d="M117 31.1c0.3 0.8 0.5 1.5 0.7 2 0.2 0.5 0.6 0.9 1 1.2 0.3 0.2 0.6 0.4 0.9 0.4 0.3 0 0.4 0.2 0.4 0.4 0 0.3-0.3 0.5-0.8 0.5 -0.3 0-0.7 0-1.2-0.1 -0.5-0.1-1.1-0.1-1.8-0.1 -1 0-1.8 0-2.4 0.1 -0.6 0.1-1 0.1-1.3 0.1 -0.4 0-0.6-0.1-0.6-0.4 0-0.4 0.2-0.6 0.7-0.6 0.6 0 1-0.1 1.2-0.2 0.2-0.1 0.3-0.3 0.3-0.7 0-0.3-0.1-0.8-0.3-1.6l-1.4-4.6c0-0.2-0.2-0.3-0.5-0.3h-4.4c-0.1 0-0.2 0-0.2 0.1 -0.1 0.1-0.1 0.1-0.2 0.2l-0.9 3.2c-0.4 1.4-0.5 2.3-0.5 2.8 0 0.4 0.1 0.6 0.2 0.7 0.1 0.1 0.4 0.2 0.7 0.3 0.5 0.1 0.8 0.2 1.1 0.3 0.2 0.1 0.4 0.3 0.4 0.5 0 0.3-0.2 0.4-0.6 0.4 -0.3 0-0.7 0-1.2-0.1 -0.5-0.1-1.2-0.1-1.9-0.1 -0.5 0-1 0-1.4 0.1 -0.4 0.1-0.7 0.1-1 0.1 -0.4 0-0.6-0.2-0.6-0.5 0-0.2 0.1-0.3 0.2-0.4 0.1-0.1 0.3-0.1 0.4-0.1 0.2 0 0.4 0 0.6-0.1 0.2 0 0.4-0.1 0.6-0.3 0.3-0.2 0.6-0.6 0.8-1 0.2-0.4 0.3-1 0.5-1.6l5.7-18.5c0.1-0.3 0.2-0.5 0.2-0.6s0.2-0.2 0.4-0.2c0.3 0 0.4 0.2 0.5 0.5 0.1 0.3 0.2 0.7 0.4 1.2L117 31.1zM109.7 18.7c-0.1 0-0.2 0.1-0.2 0.3l-1.7 6.3c0 0.1 0 0.2 0 0.3 0 0 0 0.1 0 0.1 0 0.1 0.1 0.2 0.3 0.2h3.6c0.1 0 0.1 0 0.2-0.1 0.1-0.1 0.1-0.1 0.1-0.2 0 0 0-0.2-0.1-0.4l-1.9-6.2C109.8 18.8 109.7 18.7 109.7 18.7z"/><path id="XMLID_470_" class="st4" d="M140.6 13.1c1.1 0 2 0 2.6-0.1 0.6 0 1-0.1 1.1-0.1 0.7 0 1 0.2 1 0.7 0 0.2-0.1 0.5-0.3 0.8l-10.5 18.9c-0.1 0.1-0.1 0.2-0.1 0.3 0 0.1 0 0.2 0 0.2 0 0.2 0.2 0.4 0.6 0.4h2.8c1.4 0 2.7-0.1 3.7-0.2s1.8-0.6 2.4-1.4c0.3-0.4 0.5-0.8 0.6-1.2s0.2-0.8 0.2-1.2c0.1-0.4 0.1-0.7 0.2-0.9 0.1-0.2 0.2-0.4 0.4-0.4 0.3 0 0.4 0.3 0.4 0.8V35c0 0.2 0 0.3-0.1 0.4 -0.1 0.1-0.3 0.1-0.6 0.1 -0.1 0-0.5 0-1.1-0.1 -0.6-0.1-1.6-0.1-2.8-0.1 -3.4 0-6 0-7.6 0.1 -1.7 0.1-2.6 0.1-2.8 0.1 -0.5 0-0.7-0.2-0.7-0.5 0-0.2 0-0.3 0.1-0.5l11-19.6c0-0.1 0.1-0.2 0.1-0.3 0-0.3-0.2-0.5-0.5-0.5h-2.3c-1.2 0-2.2 0.1-3 0.3 -0.8 0.2-1.4 0.5-1.9 1 -0.3 0.3-0.6 0.6-0.8 1 -0.2 0.3-0.4 0.7-0.6 0.9 -0.2 0.3-0.3 0.5-0.4 0.7 -0.1 0.2-0.3 0.3-0.4 0.3 -0.2 0-0.3-0.1-0.3-0.2 0-0.2 0.1-0.6 0.2-1.3l1-4.7c0-0.2 0.1-0.4 0.1-0.5 0-0.1 0.1-0.2 0.3-0.2 0.3 0 0.4 0.1 0.4 0.3 0 0.2 0 0.4 0.1 0.7 0.1 0.3 0.3 0.5 0.5 0.6 0.2 0.1 0.6 0.1 1.1 0.1H140.6z"/></g></svg>