<svg xmlns="http://www.w3.org/2000/svg" xmlns:xlink="http://www.w3.org/1999/xlink" version="1.1" id="Layer_1" x="0" y="0" viewBox="0 0 145.5 78" xml:space="preserve" enable-background="new 0 0 145.5 78"><style type="text/css">
	.st0{fill:#BC223E;}
</style><g id="XMLID_383_"><g id="XMLID_317_"><path id="XMLID_384_" class="st0" d="M27.5 9.4v10.8c-2.4 3.2-6.3 5.3-10.3 5.3 -7 0-12.7-5.7-12.7-12.7C4.5 5.7 10.2 0 17.2 0c3.5 0 6.7 1.4 9 3.8l-2.3 2C22.2 4 19.8 3 17.2 3c-5.4 0-9.7 4.3-9.7 9.7 0 5.4 4.3 9.7 9.7 9.7 2.8 0 5.4-1.2 7.3-3.3v-6.7h-7.1v-3H27.5zM56.1 25.1h-3.5l-9.3-12.8h-3.5v12.8h-2.9V0.8h8.4c1.5 0 3 0.6 4.1 1.7s1.7 2.5 1.7 4.1c0 2.7-1.9 5-4.4 5.6L56.1 25.1zM39.8 9.4h5.5c1.6 0 2.8-1.3 2.8-2.8 0-1.6-1.3-2.8-2.8-2.8h-5.5V9.4zM77.8 18h-9.9l-2.7 7.1h-3.3l9.4-24.3h3.2l9.4 24.3h-3.3L77.8 18zM72.8 5.2L69 15h7.6L72.8 5.2zM95.8 5.8v19.2h-3.1V0.8H96L109 20V0.8h3.1v24.3h-3.3L95.8 5.8zM122.5 0.8h7.9c6.9 0 12.5 5.5 12.5 12.2s-5.6 12.2-12.5 12.2h-7.9V0.8zM139.8 12.9c0-5-4.2-9.2-9.5-9.2h-4.8v18.4h4.8C135.6 22.1 139.8 17.9 139.8 12.9z"/></g><g id="XMLID_143_"><path id="XMLID_150_" class="st0" d="M27.5 63.8H13.5v14.2h-3.4V50.8h3.4v9.7h13.9v-9.7h3.4v27.2h-3.4V63.8zM49.3 64.2l-9.6-13.4h4.2l7.1 10 7.1-10h4.2l-9.6 13.4v13.7h-3.5V64.2zM82.7 70H71.6l-3 7.9h-3.7l10.5-27.2h3.6l10.5 27.2h-3.7L82.7 70zM77.2 55.7l-4.2 11h8.4L77.2 55.7zM101.7 54.1h-7.2v-3.4h17.8v3.4h-7.2v23.8h-3.4V54.1zM127.9 54.1h-7.2v-3.4h17.8v3.4h-7.2v23.8h-3.4V54.1z"/></g><rect id="XMLID_318_" x="2.6" y="34.9" class="st0" width="140.3" height="1.9"/></g></svg>