<svg xmlns="http://www.w3.org/2000/svg" xmlns:xlink="http://www.w3.org/1999/xlink" version="1.1" id="Layer_1" x="0" y="0" viewBox="0 0 100 100" xml:space="preserve" enable-background="new 0 0 100 100"><style type="text/css">
	.st0{fill:#111111;}
	.st1{fill:#169DD8;}
</style><g id="XMLID_133_"><g id="XMLID_457_"><path id="XMLID_467_" class="st0" d="M16.2 63v18.9h-1.8v-9.4H4.2v9.4H2.4V63h1.8v7.6h10.1V63H16.2zM31.7 72.7v9.3h-1.8v-9.3L24.4 63h2.1l4.4 7.6 4.4-7.6h2.1L31.7 72.7zM54.1 76.2h-6.9l-2.3 5.7h-1.9L50.6 63l7.7 18.9h-1.9L54.1 76.2zM53.3 74.4l-2.7-6.7 -2.7 6.7H53.3zM76.4 64.9h-6v17.1h-1.8V64.9h-6V63h13.8V64.9zM97.6 64.9h-6v17.1h-1.8V64.9h-6V63h13.8V64.9z"/></g><g id="XMLID_128_"><path id="XMLID_130_" class="st1" d="M57.5 26.8H43.1v19.8H31.7V0h11.3v15.6h14.5V0h11.4v46.6H57.5V26.8z"/></g><g id="XMLID_107_"><path id="XMLID_111_" class="st0" d="M22.6 100v-6h-5.1v6h-2.3V87.5h2.3v4.1h5.1v-4.1H25V100H22.6zM29.6 93.6c0-3.6 2.9-6.5 6.5-6.5 3.6 0 6.5 2.9 6.5 6.5 0 3.6-2.9 6.5-6.5 6.5C32.6 100.1 29.6 97.2 29.6 93.6zM32 93.6c0 2.3 1.9 4.2 4.2 4.2 2.3 0 4.2-1.9 4.2-4.2 0-2.3-1.9-4.2-4.2-4.2C33.9 89.4 32 91.3 32 93.6zM47.2 95.3v-7.8h2.3v7.8c0 1.4 1.1 2.6 2.5 2.6 1.4 0 2.5-1.2 2.5-2.6v-7.8h2.3v7.8c0 1.3-0.5 2.5-1.4 3.4 -0.9 0.9-2.2 1.4-3.4 1.4C49.4 100.1 47.2 98 47.2 95.3zM65.7 99.9c-1.3-0.3-2.6-0.9-3.7-1.9l-0.3-0.3 1.5-1.8 0.3 0.3c0.8 0.7 1.7 1.2 2.6 1.3h0c0.3 0.1 0.5 0.1 0.8 0.1 0.4 0 0.8-0.1 1.2-0.2 0.4-0.2 0.9-0.6 0.9-1.3 0-0.4-0.2-0.7-0.6-0.9 -0.5-0.3-1.2-0.5-1.6-0.5 -0.2 0-2-0.4-2.8-0.9 -0.5-0.3-1-0.8-1.3-1.2 -0.3-0.5-0.4-1.1-0.4-1.7 0-0.7 0.2-1.3 0.6-1.9 0.4-0.5 0.9-0.9 1.5-1.2 0.6-0.3 1.3-0.5 2.1-0.5 0.3 0 0.6 0 0.9 0.1 1.2 0.2 2.3 0.7 3.3 1.6l0.3 0.3 -1.5 1.8 -0.3-0.3c-1.1-0.9-2.1-1.1-2.7-1.1 -0.4 0-0.8 0.1-1.1 0.2 -0.5 0.2-0.8 0.6-0.8 1.1 0 0.4 0.1 0.6 0.5 0.9 0.3 0.2 0.8 0.4 1.6 0.6 0.1 0 0.2 0.1 0.4 0.1 0.7 0.1 1.7 0.4 2.4 0.8 0.6 0.3 1.1 0.8 1.4 1.3 0.3 0.5 0.5 1.1 0.5 1.7 0 0.8-0.2 1.5-0.6 2.1 -0.4 0.5-0.9 0.9-1.6 1.3 -0.6 0.3-1.3 0.5-2.2 0.5C66.5 100.1 66.1 100 65.7 99.9zM76.6 100V87.5h8.2v2.3h-5.9v1.8H84v2.3h-5.1v3.7h5.7v2.3H76.6z"/></g></g></svg>