<svg xmlns="http://www.w3.org/2000/svg" xmlns:xlink="http://www.w3.org/1999/xlink" version="1.1" id="Layer_1" x="0" y="0" viewBox="0 0 100 100" xml:space="preserve" enable-background="new 0 0 100 100"><style type="text/css">
	.st0{fill:#111111;}
	.st1{fill:#FCD206;}
	.st2{fill:#F18121;}
	.st3{fill:#7582C0;}
	.st4{fill:#B2AA7E;}
	.st5{fill:#D5DF37;}
	.st6{fill:#58B1CE;}
	.st7{fill:#76C065;}
</style><g id="XMLID_340_"><g id="XMLID_342_"><g id="XMLID_367_"><path id="XMLID_380_" class="st0" d="M16.6 63.5v18.7h-1.8v-9.3h-10v9.3H3V63.5h1.8v7.5h10v-7.5H16.6zM31.9 73v9.2h-1.8V73l-5.5-9.5h2l4.3 7.5 4.3-7.5h2.1L31.9 73zM54 76.5h-6.8l-2.3 5.7H43l7.6-18.7 7.6 18.7h-1.9L54 76.5zM53.3 74.8l-2.7-6.6 -2.7 6.6H53.3zM76.1 65.3h-5.9v16.9h-1.8V65.3h-5.9v-1.8h13.6V65.3zM97 65.3h-5.9v16.9h-1.8V65.3h-5.9v-1.8H97V65.3z"/></g><g id="XMLID_343_"><path id="XMLID_359_" class="st0" d="M21.2 95.5h-2.6v4.4h-2V87.2h3.9c0.7 0 1.3 0 1.9 0.1 0.6 0.1 1.1 0.3 1.5 0.6 0.4 0.3 0.8 0.7 1 1.2 0.2 0.5 0.4 1.2 0.4 2.1 0 0.8-0.1 1.5-0.4 2.1 -0.3 0.6-0.6 1-1 1.4 -0.4 0.3-0.8 0.6-1.3 0.7C22.2 95.4 21.7 95.5 21.2 95.5zM20.6 88.8h-1.9v4.9h2.3c0.9 0 1.5-0.2 1.9-0.6 0.4-0.4 0.6-1.1 0.6-1.9 0-0.4 0-0.8-0.1-1.1 -0.1-0.3-0.2-0.5-0.5-0.7 -0.2-0.2-0.5-0.3-0.9-0.4C21.5 88.9 21.1 88.8 20.6 88.8zM38.8 99.9h-7.6V87.2h1.9V98h5.6V99.9zM56.1 99.9h-2l-1.2-3.3h-4.7l-1.2 3.3h-2l4.5-12.7h2L56.1 99.9zM52.3 94.8L50.6 90l-1.7 4.8H52.3zM67.1 100.1c-0.9 0-1.8-0.2-2.6-0.5s-1.4-0.8-2-1.4c-0.6-0.6-1-1.3-1.3-2.1 -0.3-0.8-0.5-1.7-0.5-2.7 0-1 0.2-1.9 0.5-2.7 0.3-0.8 0.7-1.5 1.3-2.1 0.6-0.6 1.2-1 2-1.4 0.8-0.3 1.6-0.5 2.6-0.5 1.3 0 2.5 0.2 3.6 0.7l-0.2 1.8C69 89 67.9 88.7 67 88.7c-0.7 0-1.3 0.1-1.8 0.4 -0.5 0.2-1 0.6-1.3 1 -0.4 0.4-0.6 0.9-0.8 1.5 -0.2 0.6-0.3 1.2-0.3 1.9 0 0.7 0.1 1.3 0.3 1.9 0.2 0.6 0.5 1.1 0.8 1.5 0.4 0.4 0.8 0.8 1.3 1 0.5 0.2 1.1 0.4 1.8 0.4 0.9 0 2-0.2 3.3-0.7l0.2 1.8C69.5 99.9 68.4 100.1 67.1 100.1zM84.7 99.9h-8.1V87.2h7.9V89h-5.9v3.4h4.7v1.8h-4.7V98h6.1V99.9z"/></g></g><g id="XMLID_301_"><circle id="XMLID_339_" class="st1" cx="33.7" cy="8.2" r="8.2"/><circle id="XMLID_338_" class="st0" cx="50.2" cy="8.2" r="8.2"/><circle id="XMLID_335_" class="st2" cx="66.7" cy="8.2" r="8.2"/><circle id="XMLID_332_" class="st3" cx="33.7" cy="24.7" r="8.2"/><circle id="XMLID_329_" class="st4" cx="50.2" cy="24.7" r="8.2"/><circle id="XMLID_312_" class="st5" cx="66.7" cy="24.7" r="8.2"/><circle id="XMLID_309_" class="st6" cx="33.7" cy="41.2" r="8.2"/><circle id="XMLID_305_" class="st0" cx="50.2" cy="41.2" r="8.2"/><circle id="XMLID_302_" class="st7" cx="66.7" cy="41.2" r="8.2"/></g></g></svg>