<svg xmlns="http://www.w3.org/2000/svg" xmlns:xlink="http://www.w3.org/1999/xlink" version="1.1" id="Layer_1" x="0" y="0" viewBox="0 0 145.5 36.3" xml:space="preserve" enable-background="new 0 0 145.5 36.3"><g id="XMLID_422_"><path id="XMLID_423_" d="M21.1 35.6V18.3H6.7v17.2H0V0h6.7v11.8h14.4V0h6.7v35.6H21.1zM44.7 35.6V18L31.9 0h8.2l8 11.2 8-11.2h8.1L51.4 18v17.6H44.7zM86.4 35.6L82.8 26H71l-3.7 9.6h-7.1L73.8 0h6l13.7 35.6H86.4zM80.2 19.4l-3.3-8.6 -3.3 8.6H80.2zM101.5 35.6v-29h-8.7V0h24.2v6.6h-8.7v29H101.5zM130.1 35.6v-29h-8.7V0h24.2v6.6h-8.7v29H130.1z"/></g></svg>