<svg xmlns="http://www.w3.org/2000/svg" xmlns:xlink="http://www.w3.org/1999/xlink" version="1.1" id="Layer_1" x="0" y="0" viewBox="0 0 145.5 36.3" xml:space="preserve" enable-background="new 0 0 145.5 36.3"><style type="text/css">
	.st0{fill:#437BAA;}
</style><g id="XMLID_252_"><path id="XMLID_322_" class="st0" d="M21.6 0v29.7h-2.9V14.8H2.9v14.8H0V0h2.9v12h15.9V0H21.6zM137.2 2.9h-9.4v26.8H125V2.9h-9.4V0h21.6V2.9zM123.9 33.9c-9.8-5.1-19.3-8.6-28.2-10.8V2.9h9.4V0H83.5v2.9h9.4v19.6c-4.3-0.9-8.5-1.6-12.6-2L72.1 0h-1.9l-8.4 20.2c-6.2 0.4-11.9 1.3-17 2.5v-7.5L53.7 0h-3.3l-6.8 11.9L36.7 0h-3.2l8.7 15.1v8.1c-16.4 4.1-26.3 10.7-26.3 10.7 15.4-6.5 30.5-9.4 44.4-10.1l-5.2 12.5h4l5.3-12.7c4.6-0.1 9.1 0 13.4 0.2l5 12.5h4l-4.9-12.2C106.8 26.3 123.9 33.9 123.9 33.9zM65.9 20l5.2-12.6 5.1 12.8C72.7 19.9 69.2 19.9 65.9 20z"/><g id="XMLID_289_"><path id="XMLID_300_" class="st0" d="M143.2 0c-1.5 0-2.7 1.2-2.7 2.7s1.2 2.7 2.7 2.7c1.5 0 2.7-1.2 2.7-2.7S144.7 0 143.2 0zM143.1 5c-1.3 0-2.3-1-2.3-2.3 0-1.3 1-2.3 2.3-2.3 1.3 0 2.3 1 2.3 2.3C145.4 4 144.4 5 143.1 5z"/><g id="XMLID_291_"><g id="XMLID_180_"><path id="XMLID_181_" class="st0" d="M142.6 2.9v1.3h-0.4V1.3h1c0.3 0 0.6 0.1 0.7 0.2s0.2 0.3 0.2 0.6c0 0.1 0 0.3-0.1 0.4 -0.1 0.1-0.2 0.2-0.3 0.3 0.2 0.1 0.3 0.1 0.3 0.3 0.1 0.1 0.1 0.3 0.1 0.4v0.3c0 0.1 0 0.2 0 0.2 0 0.1 0.1 0.1 0.1 0.2v0H144c-0.1 0-0.1-0.1-0.1-0.2 0-0.1 0-0.2 0-0.3V3.5c0-0.2 0-0.3-0.1-0.4 -0.1-0.1-0.2-0.1-0.4-0.1H142.6zM142.6 2.6h0.6c0.2 0 0.4 0 0.5-0.1 0.1-0.1 0.1-0.2 0.1-0.4 0-0.2 0-0.3-0.1-0.4 -0.1-0.1-0.2-0.1-0.4-0.1h-0.7V2.6z"/></g></g></g></g></svg>