<svg xmlns="http://www.w3.org/2000/svg" xmlns:xlink="http://www.w3.org/1999/xlink" version="1.1" id="Layer_1" x="0" y="0" viewBox="0 0 145.5 41.7" xml:space="preserve" enable-background="new 0 0 145.5 41.7"><style type="text/css">
	.st0{fill:#666666;}
</style><g id="XMLID_296_"><g id="XMLID_292_"><path id="XMLID_474_" class="st0" d="M4.4 20.6c-0.1 0-0.2-0.1-0.2-0.1 -0.1 0-0.2 0-0.2 0.1 0 0.1 0 0.2 0 0.4v4.7c0 0.4 0 0.7 0.1 0.9 0.1 0.2 0.2 0.3 0.4 0.5 0.2 0.1 0.3 0.1 0.5 0.1 0.2 0 0.3 0 0.4 0 0.1 0 0.2 0.1 0.3 0.1s0.1 0.2 0.1 0.3c0 0.1 0 0.2-0.1 0.3 -0.1 0.1-0.2 0.1-0.4 0.1 -0.2 0-0.5 0-0.8-0.1 -0.4-0.1-0.9-0.1-1.6-0.1 -0.6 0-1.1 0-1.5 0.1C1 28 0.7 28.1 0.5 28.1c-0.3 0-0.5-0.1-0.5-0.4 0-0.1 0-0.2 0.1-0.3 0.1-0.1 0.1-0.1 0.2-0.1 0.1 0 0.2 0 0.3 0s0.2 0 0.4-0.1c0.4-0.1 0.6-0.3 0.7-0.5 0.1-0.2 0.1-0.7 0.1-1.2V14.1c0-0.4 0-0.6-0.1-0.8 -0.1-0.2-0.2-0.3-0.4-0.4 -0.2-0.1-0.3-0.1-0.4-0.1 -0.1 0-0.3 0-0.4 0 -0.1 0-0.2 0-0.2-0.1 -0.1 0-0.1-0.1-0.1-0.3 0-0.2 0.2-0.4 0.5-0.4 0.1 0 0.3 0 0.6 0 0.3 0 0.8 0 1.4 0h0.4c0.3 0 0.6 0 1.1 0 0.4 0 0.9 0 1.5 0 2.9 0 4.4 1.5 4.4 4.6 0 0.6-0.1 1.2-0.3 1.8 -0.2 0.5-0.4 1-0.8 1.4 -0.3 0.4-0.7 0.7-1.1 0.9 -0.4 0.2-0.9 0.3-1.3 0.3 -0.2 0-0.5 0-0.7-0.1 -0.3-0.1-0.5-0.2-0.8-0.3L4.4 20.6zM4.4 19.8C4.7 20 5 20.1 5.3 20.1c0.6 0 1.1-0.3 1.5-0.9 0.4-0.6 0.7-1.5 0.7-2.5 0-0.6-0.1-1.1-0.2-1.6S7 14.2 6.8 13.9c-0.2-0.3-0.5-0.6-0.7-0.8 -0.3-0.2-0.6-0.3-0.9-0.3 -0.5 0-0.9 0.1-1 0.3 -0.1 0.2-0.2 0.5-0.2 1V19C4 19.4 4.1 19.6 4.4 19.8zM23.1 24.9c0.2 0.6 0.4 1.1 0.5 1.4 0.2 0.4 0.4 0.6 0.7 0.9 0.2 0.2 0.5 0.3 0.6 0.3 0.2 0 0.3 0.1 0.3 0.3 0 0.2-0.2 0.4-0.5 0.4 -0.2 0-0.5 0-0.8-0.1 -0.3-0.1-0.8-0.1-1.3-0.1 -0.7 0-1.3 0-1.7 0.1 -0.4 0-0.7 0.1-0.9 0.1 -0.3 0-0.4-0.1-0.4-0.3 0-0.3 0.2-0.4 0.5-0.4 0.4 0 0.7 0 0.8-0.1 0.1-0.1 0.2-0.2 0.2-0.5 0-0.2-0.1-0.6-0.2-1.1l-1-3.2c0-0.1-0.2-0.2-0.4-0.2h-3.1c-0.1 0-0.1 0-0.2 0.1 -0.1 0-0.1 0.1-0.1 0.2l-0.6 2.3c-0.3 1-0.4 1.6-0.4 2 0 0.3 0.1 0.4 0.2 0.5 0.1 0.1 0.3 0.1 0.5 0.2 0.3 0.1 0.6 0.1 0.8 0.2 0.2 0.1 0.3 0.2 0.3 0.4 0 0.2-0.1 0.3-0.4 0.3 -0.2 0-0.5 0-0.8-0.1C15.2 28 14.7 28 14.2 28c-0.4 0-0.7 0-1 0.1 -0.3 0-0.5 0.1-0.7 0.1 -0.3 0-0.5-0.1-0.5-0.3 0-0.1 0-0.2 0.1-0.3 0.1 0 0.2-0.1 0.3-0.1 0.1 0 0.3 0 0.4-0.1 0.1 0 0.3-0.1 0.4-0.2 0.2-0.2 0.4-0.4 0.5-0.7 0.1-0.3 0.2-0.7 0.4-1.2l4-13.1c0.1-0.2 0.1-0.3 0.2-0.4 0-0.1 0.1-0.2 0.3-0.2 0.2 0 0.3 0.1 0.4 0.3 0.1 0.2 0.1 0.5 0.3 0.9L23.1 24.9zM17.9 16.1c-0.1 0-0.1 0.1-0.2 0.2l-1.2 4.5c0 0.1 0 0.1 0 0.2 0 0 0 0.1 0 0.1 0 0.1 0.1 0.2 0.2 0.2h2.5c0.1 0 0.1 0 0.2-0.1 0.1 0 0.1-0.1 0.1-0.1 0 0 0-0.1-0.1-0.3l-1.4-4.4C18 16.2 18 16.1 17.9 16.1zM37 20.6c0.1 0.3 0.3 0.6 0.4 0.9l1.5 3.5c0.3 0.7 0.5 1.2 0.7 1.6 0.2 0.4 0.3 0.6 0.5 0.7 0.3 0.1 0.5 0.2 0.7 0.2 0.2 0 0.3 0.2 0.3 0.3 0 0.1 0 0.2-0.1 0.2 -0.1 0-0.2 0-0.3 0 -0.2 0-0.5 0-0.7 0 -0.3 0-0.5 0-0.8 0 -0.2 0-0.4 0-0.6 0 -0.2 0-0.4 0-0.6 0 -0.3 0-0.4-0.1-0.5-0.2 -0.1-0.1-0.2-0.3-0.3-0.6L35 21.5c-0.2-0.4-0.4-0.7-0.6-0.9 -0.2-0.2-0.5-0.2-0.9-0.2h-0.3c-0.2 0-0.3 0.1-0.3 0.4v5c0 0.3 0 0.5 0 0.7 0 0.2 0.1 0.4 0.1 0.5s0.2 0.2 0.3 0.3c0.2 0.1 0.4 0.1 0.6 0.1 0.4 0 0.6 0.1 0.6 0.4 0 0.2-0.2 0.4-0.5 0.4 -0.1 0-0.4 0-0.8-0.1 -0.4-0.1-0.9-0.1-1.5-0.1 -0.7 0-1.2 0-1.6 0.1 -0.4 0.1-0.7 0.1-0.8 0.1 -0.4 0-0.5-0.1-0.5-0.4 0-0.1 0-0.2 0.1-0.3 0.1-0.1 0.1-0.1 0.2-0.1 0.1 0 0.2 0 0.3 0 0.1 0 0.2 0 0.4-0.1 0.2-0.1 0.4-0.1 0.5-0.2s0.2-0.2 0.2-0.3c0.1-0.1 0.1-0.3 0.1-0.4 0-0.2 0-0.4 0-0.7V14.1c0-0.4 0-0.7-0.1-0.8 -0.1-0.1-0.2-0.3-0.5-0.3 -0.2-0.1-0.3-0.1-0.5-0.1 -0.1 0-0.3 0-0.4 0 -0.1 0-0.2 0-0.3-0.1 -0.1 0-0.1-0.1-0.1-0.3 0-0.2 0.1-0.3 0.2-0.3 0.1 0 0.3-0.1 0.5-0.1 0.1 0 0.3 0 0.6 0.1 0.3 0 0.7 0.1 1.1 0.1 0.6 0 1.3 0 1.9-0.1 0.6-0.1 1.2-0.1 1.8-0.1 1.4 0 2.4 0.4 3.1 1.1 0.7 0.7 1.1 1.7 1.1 2.9 0 1-0.2 1.9-0.7 2.6 -0.5 0.7-1.1 1.1-2 1.3C36.7 20.1 36.9 20.3 37 20.6zM33.3 19.4c0.2 0.1 0.5 0.1 0.9 0.1 1.8 0 2.6-1.1 2.6-3.2 0-1.1-0.2-1.9-0.6-2.5 -0.4-0.6-1.1-0.9-1.9-0.9 -0.3 0-0.5 0-0.7 0.1 -0.2 0.1-0.3 0.1-0.4 0.2 -0.1 0.1-0.1 0.2-0.2 0.4 0 0.2 0 0.3 0 0.5V19C33 19.2 33.1 19.4 33.3 19.4zM48.9 18.8c0 0.2 0.1 0.4 0.2 0.4 0.1 0 0.1-0.1 0.3-0.2l3.9-4.9c0.2-0.3 0.3-0.5 0.3-0.7 0-0.2-0.1-0.4-0.2-0.4 -0.1-0.1-0.3-0.1-0.5-0.1 -0.2 0-0.3 0-0.5-0.1 -0.1 0-0.2-0.1-0.2-0.3 0-0.2 0.1-0.4 0.3-0.4 0.1 0 0.4 0 0.7 0.1s0.9 0.1 1.5 0.1c0.7 0 1.2 0 1.5-0.1 0.4-0.1 0.6-0.1 0.7-0.1 0.2 0 0.3 0.1 0.3 0.4 0 0.1 0 0.2-0.1 0.2 -0.1 0-0.2 0.1-0.3 0.1 -0.1 0-0.2 0.1-0.4 0.1 -0.2 0-0.3 0.1-0.5 0.1 -0.3 0.1-0.6 0.4-1 0.7 -0.4 0.4-0.9 0.9-1.4 1.5l-2.5 3c-0.1 0.2-0.2 0.3-0.2 0.4 0 0.1 0 0.2 0.1 0.3l4.5 6.9c0.2 0.4 0.4 0.7 0.6 0.9 0.2 0.2 0.4 0.4 0.7 0.6 0.1 0.1 0.2 0.1 0.3 0.1 0.1 0 0.2 0 0.3 0 0.1 0 0.2 0 0.2 0.1 0.1 0 0.1 0.1 0.1 0.2 0 0.2-0.2 0.4-0.6 0.4 -0.2 0-0.5 0-0.9-0.1 -0.4-0.1-0.9-0.1-1.6-0.1 -0.7 0-1.3 0-1.6 0.1 -0.4 0.1-0.6 0.1-0.7 0.1 -0.4 0-0.6-0.1-0.6-0.4 0-0.1 0.1-0.2 0.2-0.2 0.1 0 0.3-0.1 0.5-0.1 0.2 0 0.3 0 0.5-0.1 0.1 0 0.2-0.1 0.2-0.3 0-0.1 0-0.2 0-0.3 0-0.1-0.1-0.2-0.2-0.4l-3.6-5.9c-0.1-0.1-0.1-0.2-0.2-0.2 -0.2 0-0.3 0.1-0.3 0.4v5.1c0 0.3 0 0.5 0 0.7 0 0.2 0 0.3 0.1 0.4 0 0.1 0.1 0.2 0.2 0.3 0.1 0.1 0.2 0.1 0.4 0.2 0.2 0.1 0.3 0.1 0.4 0.1s0.3 0 0.4 0c0.1 0 0.2 0.1 0.2 0.1 0.1 0.1 0.1 0.2 0.1 0.3 0 0.2-0.2 0.4-0.5 0.4 -0.2 0-0.4 0-0.8-0.1 -0.4-0.1-0.9-0.1-1.6-0.1 -0.7 0-1.2 0-1.6 0.1 -0.4 0.1-0.7 0.1-0.8 0.1 -0.4 0-0.5-0.1-0.5-0.4 0-0.1 0-0.2 0.1-0.3 0.1-0.1 0.1-0.1 0.2-0.1 0.1 0 0.2 0 0.3 0 0.1 0 0.2 0 0.4-0.1 0.2-0.1 0.4-0.1 0.5-0.2 0.1-0.1 0.2-0.2 0.2-0.3 0.1-0.1 0.1-0.3 0.1-0.4 0-0.2 0-0.4 0-0.7V14.1c0-0.4 0-0.7-0.1-0.8 -0.1-0.1-0.2-0.3-0.5-0.3 -0.2-0.1-0.3-0.1-0.5-0.1 -0.1 0-0.3 0-0.4 0 -0.1 0-0.2 0-0.3-0.1 -0.1 0-0.1-0.1-0.1-0.3 0-0.2 0.1-0.4 0.4-0.4 0.1 0 0.4 0 0.8 0.1 0.4 0.1 1 0.1 1.7 0.1 0.7 0 1.3 0 1.7-0.1 0.4-0.1 0.7-0.1 0.8-0.1 0.3 0 0.4 0.1 0.4 0.4 0 0.1 0 0.2-0.1 0.2 -0.1 0-0.1 0.1-0.2 0.1 -0.1 0-0.2 0-0.4 0 -0.1 0-0.3 0-0.4 0.1 -0.3 0.1-0.5 0.2-0.6 0.3 -0.1 0.2-0.1 0.4-0.1 0.8V18.8zM74.9 18.7c0 0.2 0.1 0.3 0.3 0.3H81c0.2 0 0.3-0.1 0.3-0.4v-4.6c0-0.4 0-0.7-0.1-0.8 -0.1-0.1-0.2-0.3-0.5-0.3 -0.2-0.1-0.3-0.1-0.5-0.1 -0.1 0-0.3 0-0.4 0 -0.1 0-0.2 0-0.3-0.1 -0.1 0-0.1-0.1-0.1-0.3 0-0.2 0.1-0.4 0.4-0.4 0.1 0 0.4 0 0.8 0.1 0.4 0.1 1 0.1 1.7 0.1 0.7 0 1.3 0 1.7-0.1s0.7-0.1 0.8-0.1c0.3 0 0.4 0.1 0.4 0.4 0 0.1 0 0.2-0.1 0.2 -0.1 0-0.1 0.1-0.2 0.1 -0.1 0-0.2 0-0.4 0 -0.1 0-0.3 0-0.4 0.1 -0.3 0.1-0.5 0.2-0.6 0.3 -0.1 0.2-0.1 0.4-0.1 0.8v11.6c0 0.3 0 0.5 0 0.7 0 0.2 0 0.3 0.1 0.4 0 0.1 0.1 0.2 0.2 0.3 0.1 0.1 0.2 0.1 0.4 0.2 0.2 0.1 0.3 0.1 0.4 0.1s0.3 0 0.4 0c0.1 0 0.2 0.1 0.3 0.1 0.1 0.1 0.1 0.2 0.1 0.3 0 0.2-0.2 0.4-0.6 0.4 -0.2 0-0.4 0-0.8-0.1 -0.4-0.1-0.9-0.1-1.6-0.1 -0.7 0-1.2 0-1.6 0.1 -0.4 0.1-0.7 0.1-0.8 0.1 -0.4 0-0.6-0.1-0.6-0.4 0-0.1 0-0.2 0.1-0.3 0.1-0.1 0.1-0.1 0.2-0.1 0.1 0 0.2 0 0.3 0 0.1 0 0.2 0 0.4-0.1 0.2-0.1 0.4-0.1 0.5-0.2s0.2-0.2 0.2-0.3c0.1-0.1 0.1-0.3 0.1-0.4 0-0.2 0-0.4 0-0.7v-5.4c0-0.2-0.1-0.4-0.3-0.4h-5.8c-0.2 0-0.3 0.1-0.3 0.4v5.4c0 0.3 0 0.5 0 0.7 0 0.2 0 0.3 0.1 0.4 0 0.1 0.1 0.2 0.2 0.3 0.1 0.1 0.2 0.1 0.4 0.2 0.2 0.1 0.3 0.1 0.4 0.1s0.3 0 0.4 0c0.1 0 0.2 0.1 0.2 0.1 0.1 0.1 0.1 0.2 0.1 0.3 0 0.2-0.2 0.4-0.5 0.4 -0.2 0-0.4 0-0.8-0.1 -0.4-0.1-0.9-0.1-1.6-0.1 -0.7 0-1.2 0-1.6 0.1 -0.4 0.1-0.7 0.1-0.8 0.1 -0.4 0-0.5-0.1-0.5-0.4 0-0.1 0-0.2 0.1-0.3 0.1-0.1 0.1-0.1 0.2-0.1 0.1 0 0.2 0 0.3 0 0.1 0 0.2 0 0.4-0.1 0.2-0.1 0.4-0.1 0.5-0.2s0.2-0.2 0.2-0.3c0.1-0.1 0.1-0.3 0.1-0.4 0-0.2 0-0.4 0-0.7V14.1c0-0.4 0-0.7-0.1-0.8 -0.1-0.1-0.2-0.3-0.5-0.3 -0.2-0.1-0.3-0.1-0.5-0.1 -0.1 0-0.3 0-0.4 0 -0.1 0-0.2 0-0.3-0.1 -0.1 0-0.1-0.1-0.1-0.3 0-0.2 0.1-0.4 0.4-0.4 0.1 0 0.4 0 0.8 0.1 0.4 0.1 1 0.1 1.7 0.1 0.7 0 1.3 0 1.7-0.1 0.4-0.1 0.7-0.1 0.8-0.1 0.3 0 0.4 0.1 0.4 0.4 0 0.1 0 0.2-0.1 0.2 -0.1 0-0.1 0.1-0.2 0.1 -0.1 0-0.2 0-0.4 0 -0.1 0-0.3 0-0.4 0.1 -0.3 0.1-0.5 0.2-0.6 0.3 -0.1 0.2-0.1 0.4-0.1 0.8V18.7zM96.5 19.3c0.1 0.1 0.1 0.2 0.2 0.2 0 0 0.1-0.1 0.2-0.2l2.4-4.8c0.1-0.3 0.2-0.5 0.3-0.6 0.1-0.2 0.1-0.3 0.1-0.4 0-0.2-0.1-0.4-0.2-0.4 -0.2-0.1-0.3-0.1-0.5-0.1 -0.2 0-0.3-0.1-0.5-0.1 -0.1 0-0.2-0.2-0.2-0.3 0-0.2 0.1-0.3 0.4-0.3 0.2 0 0.4 0 0.7 0.1 0.3 0.1 0.7 0.1 1.1 0.1 0.6 0 1 0 1.2-0.1 0.3 0 0.4-0.1 0.5-0.1 0.3 0 0.4 0.1 0.4 0.3 0 0.1 0 0.2-0.1 0.3 -0.1 0.1-0.1 0.1-0.2 0.1 -0.1 0-0.2 0-0.3 0 -0.1 0-0.2 0-0.4 0.1 -0.3 0.1-0.5 0.3-0.7 0.6 -0.2 0.3-0.4 0.7-0.7 1.2l-3 5.7c0 0.1-0.1 0.2-0.1 0.3 0 0.1-0.1 0.2-0.1 0.3v4.8c0 0.5 0 0.8 0.1 1 0.1 0.2 0.3 0.3 0.7 0.4 0.1 0 0.3 0.1 0.4 0.1 0.1 0 0.2 0 0.3 0s0.2 0.1 0.2 0.1c0.1 0.1 0.1 0.1 0.1 0.3 0 0.2-0.2 0.4-0.5 0.4 -0.2 0-0.4 0-0.8-0.1 -0.4-0.1-0.9-0.1-1.6-0.1s-1.2 0-1.6 0.1c-0.4 0.1-0.7 0.1-0.8 0.1 -0.4 0-0.5-0.1-0.5-0.4 0-0.1 0-0.2 0.1-0.3 0.1-0.1 0.2-0.1 0.3-0.1 0.1 0 0.2 0 0.4 0s0.3 0 0.4-0.1c0.3-0.1 0.5-0.3 0.6-0.5s0.1-0.6 0.1-1.1v-4.2c0-0.1 0-0.2-0.1-0.3 0-0.1-0.1-0.2-0.1-0.3l-3.2-5.9c-0.6-1.1-1.1-1.8-1.4-2 -0.1-0.1-0.2-0.1-0.4-0.2 -0.1 0-0.2 0-0.4 0 -0.1 0-0.2 0-0.3-0.1 -0.1 0-0.1-0.1-0.1-0.2 0-0.1 0-0.2 0.1-0.3 0.1-0.1 0.2-0.1 0.4-0.1 0.2 0 0.6 0 1.1 0.1 0.5 0.1 1.2 0.1 2 0.1 0.6 0 1.1 0 1.4-0.1 0.3 0 0.5-0.1 0.6-0.1 0.2 0 0.3 0.1 0.3 0.3 0 0.2-0.1 0.3-0.2 0.3 -0.1 0.1-0.3 0.1-0.4 0.1 -0.2 0-0.3 0.1-0.4 0.1 -0.1 0.1-0.2 0.2-0.2 0.4 0 0.2 0.1 0.4 0.2 0.6L96.5 19.3zM113.7 24.9c0.2 0.6 0.4 1.1 0.5 1.4 0.2 0.4 0.4 0.6 0.7 0.9 0.2 0.2 0.5 0.3 0.6 0.3 0.2 0 0.3 0.1 0.3 0.3 0 0.2-0.2 0.4-0.5 0.4 -0.2 0-0.5 0-0.8-0.1 -0.3-0.1-0.8-0.1-1.3-0.1 -0.7 0-1.3 0-1.7 0.1 -0.4 0-0.7 0.1-0.9 0.1 -0.3 0-0.4-0.1-0.4-0.3 0-0.3 0.2-0.4 0.5-0.4 0.4 0 0.7 0 0.8-0.1 0.1-0.1 0.2-0.2 0.2-0.5 0-0.2-0.1-0.6-0.2-1.1l-1-3.2c0-0.1-0.2-0.2-0.4-0.2H107c-0.1 0-0.1 0-0.2 0.1 -0.1 0-0.1 0.1-0.1 0.2l-0.6 2.3c-0.3 1-0.4 1.6-0.4 2 0 0.3 0.1 0.4 0.2 0.5 0.1 0.1 0.3 0.1 0.5 0.2 0.3 0.1 0.6 0.1 0.8 0.2 0.2 0.1 0.3 0.2 0.3 0.4 0 0.2-0.1 0.3-0.4 0.3 -0.2 0-0.5 0-0.8-0.1 -0.4-0.1-0.8-0.1-1.4-0.1 -0.4 0-0.7 0-1 0.1 -0.3 0-0.5 0.1-0.7 0.1 -0.3 0-0.5-0.1-0.5-0.3 0-0.1 0-0.2 0.1-0.3 0.1 0 0.2-0.1 0.3-0.1 0.1 0 0.3 0 0.4-0.1 0.1 0 0.3-0.1 0.4-0.2 0.2-0.2 0.4-0.4 0.5-0.7 0.1-0.3 0.2-0.7 0.4-1.2l4-13.1c0.1-0.2 0.1-0.3 0.2-0.4s0.1-0.2 0.3-0.2c0.2 0 0.3 0.1 0.4 0.3 0.1 0.2 0.1 0.5 0.3 0.9L113.7 24.9zM108.5 16.1c-0.1 0-0.1 0.1-0.2 0.2l-1.2 4.5c0 0.1 0 0.1 0 0.2 0 0 0 0.1 0 0.1 0 0.1 0.1 0.2 0.2 0.2h2.5c0.1 0 0.1 0 0.2-0.1 0.1 0 0.1-0.1 0.1-0.1 0 0 0-0.1-0.1-0.3l-1.4-4.4C108.6 16.2 108.5 16.1 108.5 16.1zM129.2 15c0 0.3 0 0.5-0.1 0.6 0 0.1-0.1 0.1-0.3 0.1 -0.1 0-0.2 0-0.3-0.1 -0.1-0.1-0.1-0.2-0.2-0.4 0-0.2-0.1-0.3-0.1-0.5 -0.1-0.2-0.1-0.4-0.2-0.7 -0.2-0.5-0.6-0.9-1-1 -0.4-0.1-1-0.2-1.8-0.2H125c-0.1 0-0.2 0-0.2 0.1 -0.1 0.1-0.1 0.2-0.1 0.3v12.5c0 0.3 0 0.5 0 0.7 0 0.2 0 0.3 0.1 0.4 0 0.1 0.1 0.2 0.2 0.3 0.1 0.1 0.2 0.1 0.4 0.2 0.2 0.1 0.3 0.1 0.4 0.1 0.1 0 0.3 0 0.4 0 0.1 0 0.2 0.1 0.2 0.1 0.1 0.1 0.1 0.1 0.1 0.3 0 0.2-0.2 0.4-0.5 0.4 -0.3 0-0.6 0-1-0.1 -0.4-0.1-0.9-0.1-1.4-0.1 -0.5 0-1 0-1.4 0.1 -0.4 0.1-0.7 0.1-1 0.1 -0.4 0-0.5-0.1-0.5-0.4 0-0.1 0-0.2 0.1-0.3 0.1-0.1 0.2-0.1 0.3-0.1 0.1 0 0.2 0 0.4 0 0.1 0 0.3 0 0.4-0.1 0.3-0.1 0.5-0.2 0.6-0.4 0.1-0.2 0.1-0.6 0.1-1.1V13.3c0-0.1 0-0.2-0.1-0.3 -0.1-0.1-0.1-0.2-0.2-0.2h-0.7c-0.5 0-1 0.1-1.3 0.3 -0.3 0.2-0.7 0.5-1 0.9 -0.3 0.5-0.5 0.9-0.7 1.2 -0.2 0.3-0.3 0.4-0.5 0.4h-0.1c-0.1 0-0.1 0-0.2-0.1 0 0-0.1-0.1-0.1-0.3 0 0 0-0.1 0-0.2 0-0.1 0-0.2 0.1-0.3l0.6-2.6c0.1-0.4 0.1-0.7 0.2-0.9s0.1-0.4 0.3-0.4c0.1 0 0.1 0 0.2 0.1 0 0.1 0.1 0.2 0.1 0.3 0 0.1 0.1 0.2 0.1 0.3 0 0.1 0.1 0.1 0.2 0.1 0.2 0.2 0.5 0.2 1.2 0.2 0.2 0 0.5 0 0.8 0 0.3 0 0.6 0 1 0h3.1c0.4 0 0.8 0 1.1 0 0.3 0 0.6 0 0.8 0 0.4 0 0.7 0 0.8-0.1 0.1-0.1 0.2-0.2 0.3-0.3 0.1-0.1 0.1-0.2 0.2-0.3 0.1-0.1 0.1-0.2 0.2-0.3C129 11 129 11 129.1 11c0.1 0 0.2 0.1 0.2 0.2 0 0.1 0.1 0.2 0.1 0.3v0.3L129.2 15zM145.2 15c0 0.3 0 0.5-0.1 0.6 0 0.1-0.1 0.1-0.3 0.1 -0.1 0-0.2 0-0.3-0.1 -0.1-0.1-0.1-0.2-0.2-0.4 0-0.2-0.1-0.3-0.1-0.5 -0.1-0.2-0.1-0.4-0.2-0.7 -0.2-0.5-0.6-0.9-1-1 -0.4-0.1-1-0.2-1.8-0.2H141c-0.1 0-0.2 0-0.2 0.1 -0.1 0.1-0.1 0.2-0.1 0.3v12.5c0 0.3 0 0.5 0 0.7 0 0.2 0 0.3 0.1 0.4 0 0.1 0.1 0.2 0.2 0.3 0.1 0.1 0.2 0.1 0.4 0.2 0.2 0.1 0.3 0.1 0.4 0.1 0.1 0 0.3 0 0.4 0 0.1 0 0.2 0.1 0.2 0.1 0.1 0.1 0.1 0.1 0.1 0.3 0 0.2-0.2 0.4-0.5 0.4 -0.3 0-0.6 0-1-0.1 -0.4-0.1-0.9-0.1-1.4-0.1 -0.5 0-1 0-1.4 0.1 -0.4 0.1-0.7 0.1-1 0.1 -0.4 0-0.5-0.1-0.5-0.4 0-0.1 0-0.2 0.1-0.3 0.1-0.1 0.2-0.1 0.3-0.1 0.1 0 0.2 0 0.4 0 0.1 0 0.3 0 0.4-0.1 0.3-0.1 0.5-0.2 0.6-0.4 0.1-0.2 0.1-0.6 0.1-1.1V13.3c0-0.1 0-0.2-0.1-0.3 -0.1-0.1-0.1-0.2-0.2-0.2h-0.7c-0.5 0-1 0.1-1.3 0.3 -0.3 0.2-0.7 0.5-1 0.9 -0.3 0.5-0.5 0.9-0.7 1.2 -0.2 0.3-0.3 0.4-0.5 0.4h-0.1c-0.1 0-0.1 0-0.2-0.1 0 0-0.1-0.1-0.1-0.3 0 0 0-0.1 0-0.2 0-0.1 0-0.2 0.1-0.3l0.6-2.6c0.1-0.4 0.1-0.7 0.2-0.9 0-0.2 0.1-0.4 0.3-0.4 0.1 0 0.1 0 0.2 0.1 0 0.1 0.1 0.2 0.1 0.3 0 0.1 0.1 0.2 0.1 0.3 0 0.1 0.1 0.1 0.2 0.1 0.2 0.2 0.5 0.2 1.2 0.2 0.2 0 0.5 0 0.8 0 0.3 0 0.6 0 1 0h3.1c0.4 0 0.8 0 1.1 0 0.3 0 0.6 0 0.8 0 0.4 0 0.7 0 0.8-0.1 0.1-0.1 0.2-0.2 0.3-0.3 0.1-0.1 0.1-0.2 0.2-0.3 0.1-0.1 0.1-0.2 0.2-0.3C145 11 145 11 145.1 11c0.1 0 0.2 0.1 0.2 0.2 0 0.1 0.1 0.2 0.1 0.3v0.3L145.2 15z"/></g><rect id="XMLID_294_" x="18" class="st0" width="109.4" height="1"/><rect id="XMLID_447_" x="18" y="40.8" class="st0" width="109.4" height="1"/></g></svg>